<svg width="1045" height="900" viewBox="0 0 1045 900" fill="none" xmlns="http://www.w3.org/2000/svg">
<path d="M338.496 423.5C482.496 266.5 603.996 241 703.996 1.5H1044L1047 201.5C870.996 308 847.06 466.389 798.996 620.5C704.496 923.5 413.996 827.433 384.996 817C234.542 762.873 194.496 580.5 338.496 423.5Z" fill="#4485A1" fill-opacity="0.5"/>
<path d="M190.566 443C494.067 235.814 655.566 0 655.566 0H1047.07V361C1047.07 361 920.566 473 906.566 579.5C892.566 686 789.566 900 789.566 900H37.0664C37.0664 900 -112.934 650.187 190.566 443Z" fill="#4485A1" fill-opacity="0.5"/>
</svg>
