<svg width="26" height="26" viewBox="0 0 26 26" fill="none" xmlns="http://www.w3.org/2000/svg">
<path d="M4.58119 21.4188C3.80627 20.6439 3.80627 19.3875 4.58119 18.6125L18.6124 4.5812C19.3873 3.80627 20.6437 3.80627 21.4186 4.5812C22.1935 5.35613 22.1935 6.61254 21.4186 7.38746L7.38743 21.4188C6.61251 22.1937 5.35611 22.1937 4.58119 21.4188Z" fill="#021718"/>
<path d="M4.58138 4.5812C5.3563 3.80627 6.61269 3.80627 7.38761 4.5812L21.4188 18.6125C22.1937 19.3875 22.1937 20.6439 21.4188 21.4188C20.6439 22.1937 19.3875 22.1937 18.6126 21.4188L4.58138 7.38747C3.80645 6.61254 3.80645 5.35613 4.58138 4.5812Z" fill="#021718"/>
</svg>
